<svg width="48" height="48" viewBox="0 0 48 48" fill="none" xmlns="http://www.w3.org/2000/svg">
<path d="M25.9435 40.3271C25.9511 40.8033 25.5814 40.997 25.1388 41.0643C24.1856 41.2096 21.784 41.4221 19.1384 40.9997C17.1391 40.6796 14.9939 40.1577 13.2587 39.4824C11.292 38.7183 9.57442 37.4593 8.16862 35.5519C7.047 34.0318 6.24981 32.0007 5.53559 29.4476C4.91191 27.22 4.99237 23.9997 5.01752 20.8252C5.02255 20.3087 6.03854 20.5642 6.71504 20.8091C8.25663 21.3659 10.9651 21.4816 14.589 24.7692C16.113 26.152 17.6571 26.8918 19.0554 28.1805C20.2197 29.2539 21.1477 30.8089 22.4881 32.7432C23.9744 34.8874 25.8857 36.9885 25.9435 40.3271Z" fill="#D6E077"/>
<path d="M21.3314 24.9953C21.6306 25.2213 22.199 25.3235 22.4404 25.0302C23.3583 23.9192 24.2235 19.5528 24.3442 15.8456C24.4045 14.0216 24.4799 12.2702 24.0147 10.3977C23.6375 8.87504 22.9736 7.29853 21.6533 5.58212C20.5166 4.10246 18.5424 2.47214 16.5104 1.03283C16.1785 0.798774 15.6629 1.8722 15.512 2.47752C15.17 3.86302 14.1389 6.82234 14.2144 11.4254C14.2672 14.6565 14.4407 15.5066 15.8239 19.6254C16.523 21.697 19.2315 23.4188 21.3314 24.9953Z" fill="#B3CC5A"/>
<path d="M33.3321 46.5851C33.7169 46.9456 34.5015 47.1851 34.8888 46.8138C35.7212 46.0121 37.0667 43.2734 38.7013 40.4432C39.9386 38.3017 41.1608 35.9585 41.9077 33.8062C42.7527 31.3769 43.1048 28.9368 42.6018 26.1954C42.1995 23.9974 41.4827 21.5439 39.9185 18.9693C39.1892 17.7694 38.1506 16.3839 36.8806 15.1248C35.7816 14.038 34.2249 13.3492 33.0102 12.2731C32.5852 11.8965 32.0345 13.0506 31.7277 13.8765C31.2926 15.0468 30.689 16.6502 29.9748 18.9935C29.5423 20.4167 28.6747 22.0792 28.6696 24.3014C28.6621 26.7711 28.7199 28.7808 28.7275 31.0621C28.735 32.9642 28.6822 35.111 29.2656 37.8228C29.6026 39.3859 30.2867 40.9059 30.8751 42.4824C31.4133 43.9271 32.042 45.3772 33.3321 46.5851Z" fill="#C2D363"/>
<path d="M33.6791 17.2925C33.6791 17.2925 35.3565 27.0367 35.188 31.5806C35.0195 36.1245 33.6791 44.1954 33.6791 44.1954L32.897 37.3809L33.2893 23.1519L33.6791 17.2925Z" fill="#B3CC5A"/>
</svg>
