<svg width="48" height="48" viewBox="0 0 48 48" fill="none" xmlns="http://www.w3.org/2000/svg">
<path d="M21.3806 44.942C14.4648 44.8199 9.32574 43.6094 6.20235 41.4411C1.55752 38.215 1.49366 32.7455 2.57088 27.2234C4.02569 19.7633 6.69654 15.6821 15.5198 15.0658C26.2115 14.3189 18.2822 7.45856 27.4747 3.0997C27.7163 2.98587 28.6602 2.91923 28.6214 3.18576C28.3298 5.15975 27.0222 11.5842 34.1158 15.013C36.6755 16.2513 47.37 19.9743 44.8186 33.6062C42.5975 45.4751 32.5832 45.1419 21.3806 44.942Z" fill="#EDDDBE"/>
<path d="M25.4534 13.2722L25.0786 13.5249L23.4184 17.5533L21.5666 21.4347L19.3649 25.1939L14.1093 27.6537L8.18457 28.6504L12.8322 30.605L17.663 30.5772L22.0358 28.5199L25.2869 25.7908L26.5668 21.8012L25.6311 17.5089L25.4534 13.2722Z" fill="#FFF7EE"/>
</svg>
