<svg width="24" height="24" viewBox="0 0 24 24" fill="none" xmlns="http://www.w3.org/2000/svg">
<path d="M6.87941 10.3768L3.94482 8.07514C4.67816 6.56013 5.82192 5.28131 7.24604 4.38412C8.67015 3.48693 10.3175 3.00738 12.0006 3C14.2638 2.99966 16.4417 3.86421 18.0885 5.41674L15.5336 7.99459C14.5568 7.13591 13.3012 6.66147 12.0006 6.65962C10.8659 6.66738 9.76195 7.02995 8.84359 7.69654C7.92524 8.36312 7.23843 9.30031 6.87941 10.3768Z" fill="#EA4335"/>
<path d="M18.0308 19.0539C16.3903 20.5779 14.2339 21.4249 11.9947 21.4246C10.3051 21.4134 8.653 20.9258 7.22802 20.0179C5.80305 19.11 4.66305 17.8185 3.93896 16.2919L6.90235 14.0593C7.26183 15.1346 7.94906 16.0703 8.86759 16.7349C9.78611 17.3995 10.8897 17.7598 12.0235 17.765C13.1333 17.7655 14.2156 17.4195 15.1192 16.7753L18.0308 19.0539Z" fill="#34A853"/>
<path d="M6.56855 12.2296C6.56871 12.8522 6.67173 13.4704 6.8735 14.0594L3.93891 16.292C3.32098 15.0147 3 13.6141 3 12.1951C3 10.7761 3.32098 9.37551 3.93891 8.09814L6.8735 10.3998C6.67355 10.9892 6.57057 11.6072 6.56855 12.2296Z" fill="#FBBC05"/>
<path d="M21.0001 12.2239C21.0051 13.5059 20.7437 14.775 20.2326 15.9507C19.7215 17.1264 18.9718 18.1832 18.031 19.0541L15.0906 16.7524C16.0406 16.0713 16.753 15.1093 17.1276 14.002H12.064V10.7451H20.8908C20.9658 11.2344 21.0023 11.7289 21.0001 12.2239Z" fill="#4285F4"/>
</svg>
