<svg width="48" height="48" viewBox="0 0 48 48" fill="none" xmlns="http://www.w3.org/2000/svg">
<path d="M17.433 7.32031C17.7328 7.98437 18.6371 7.55836 18.6574 6.83165C18.7031 5.21535 19.5745 4.31323 20.0444 3.68425C20.8573 2.5992 21.6144 2.90242 22.5645 3.90979C23.2402 4.62647 23.8168 5.52108 23.9464 6.83667C23.9972 7.3579 25.5341 6.65875 27.3733 6.24278C28.4276 6.00472 29.7536 6.31294 30.9069 6.09994C32.1923 5.86188 33.4295 5.21786 34.3694 5.33063C35.7691 5.49852 36.5846 6.30792 37.0723 6.94943C37.6185 7.66862 37.9716 8.74366 37.2552 9.98659C36.831 10.7233 35.7742 11.2746 34.8724 12.1767C33.7013 13.3495 33.1907 13.9459 33.432 14.9483C33.5819 15.5747 34.4735 16.2588 35.0781 17.6496C35.4109 18.4189 35.4846 19.4864 35.9368 20.6417C36.4118 21.8495 36.5871 23.0348 36.991 23.997C37.5169 25.25 38.3247 26.1672 38.7464 27.0643C39.3916 28.435 39.7066 29.5576 40.169 30.2919C41.2258 31.9708 42.2216 31.9858 42.9532 32.4269C44.0938 33.111 46.0448 35.4064 44.3122 36.8723C43.5933 37.4813 41.9675 37.1455 40.3061 36.8272C39.1376 36.6017 37.8446 36.2083 36.5287 35.9777C35.2102 35.7497 33.841 35.3162 32.6343 35.459C31.4328 35.6018 30.2464 36.2258 29.0398 36.4764C27.7645 36.7395 26.3673 36.5641 25.3029 36.9651C23.921 37.4863 23.1945 38.6841 22.6 39.466C22.1631 40.0398 21.0962 41.5884 19.7853 42.8414C18.6041 43.9715 16.9909 44.9589 15.8173 44.999C14.4252 45.0441 14.2144 43.6107 14.2804 42.1823C14.3312 41.0722 14.6945 39.9596 15.3448 38.9623C15.8021 38.2606 15.6344 36.722 15.5099 35.0806C15.4236 33.9279 14.9434 32.6925 14.6869 31.3945C14.4379 30.134 13.9959 28.9236 13.6784 27.7734C13.2745 26.3075 13.531 24.809 13.1779 23.962C12.4463 22.2028 11.8265 22.1477 11.1025 22.0149C10.5207 21.9071 9.67227 21.8871 8.09727 21.5363C6.80932 21.2481 5.34352 20.5815 4.32484 19.7796C3.00641 18.7422 2.52885 17.409 3.55515 16.3064C4.15721 15.6574 5.49341 15.0234 6.99982 14.2641C8.20394 13.6577 9.26836 12.5827 10.3861 11.9612C12.0856 11.0165 13.7317 10.2923 13.5183 9.45784C13.2084 8.26252 13.0026 7.10981 13.1932 6.14253C13.4929 4.62897 14.4252 3.54392 15.5277 4.3834C16.0866 4.81441 16.7573 5.81928 17.433 7.32031Z" fill="#B59B78"/>
</svg>
