<svg width="48" height="48" viewBox="0 0 48 48" fill="none" xmlns="http://www.w3.org/2000/svg">
<path d="M14.2094 11.4481C13.8423 11.4481 13.8422 11.5171 13.4723 11.5171C12.4812 11.5171 11.7827 10.6916 11.7827 9.70051C11.7827 8.70939 12.4812 7.94189 13.4723 7.94189C13.8395 7.94189 13.8395 7.9695 14.2094 7.9695C15.2005 7.9695 15.9266 8.70939 15.9266 9.70051C15.9266 10.6916 15.2005 11.4481 14.2094 11.4481Z" fill="#514E4C"/>
<path d="M17.5221 18.3638C17.2763 18.3638 17.2763 18.3445 17.0306 18.3445C16.0395 18.3445 15.2886 17.4086 15.2886 16.4175C15.2886 15.4263 16.0395 14.4849 17.0306 14.4849C17.2763 14.4849 17.2763 14.4739 17.5221 14.4739C18.5132 14.4739 19.4463 15.4291 19.4463 16.4202C19.4463 17.4113 18.5132 18.3638 17.5221 18.3638Z" fill="#514E4C"/>
<path d="M24.5153 15.9426C23.6209 15.9426 22.9141 15.2331 22.8009 14.3248C22.6795 13.3419 23.3172 12.4695 24.3 12.3481C24.8522 12.2791 24.8494 12.2487 25.4015 12.1824C26.3871 12.061 27.4279 12.7594 27.5494 13.7423C27.6709 14.7251 26.804 15.465 25.8184 15.5864C25.2663 15.6527 25.2801 15.7659 24.7307 15.8349C24.6534 15.8404 24.5871 15.9426 24.5153 15.9426Z" fill="#514E4C"/>
<path d="M14.3335 28.3607C14.1485 28.3607 14.1485 28.3552 13.9663 28.3552C12.9752 28.3552 12.1304 27.6236 12.1304 26.6325C12.1304 25.6414 12.9752 24.976 13.9663 24.976C14.1513 24.976 14.1512 24.9512 14.3335 24.9512C15.3246 24.9512 16.0203 25.6414 16.0203 26.6325C16.0203 27.6236 15.3246 28.3607 14.3335 28.3607Z" fill="#514E4C"/>
<path d="M11.0732 19.1316C11.8821 19.1316 12.4204 19.7997 12.6192 20.6196C12.8538 21.5831 12.4756 22.577 11.5149 22.8117C10.7777 22.9911 10.717 22.7454 9.97987 22.9249C9.01637 23.1595 8.0004 22.7648 7.76574 21.804C7.53108 20.8405 8.24338 19.9791 9.20688 19.7445C9.944 19.565 9.91087 19.427 10.648 19.2475C10.7888 19.2117 10.9324 19.1316 11.0732 19.1316Z" fill="#514E4C"/>
<path d="M20.2746 24.0204C19.5181 24.0204 18.7368 23.6863 18.4911 22.9271C18.1847 21.9829 18.7479 20.8483 19.6893 20.5418C19.8743 20.4811 19.8632 20.4452 20.0482 20.3872C20.9923 20.0808 22.1464 20.6992 22.4528 21.6434C22.7593 22.5876 22.1464 23.6449 21.2049 23.9514C21.02 24.0121 20.9758 23.8713 20.7908 23.9293C20.6031 23.99 20.4568 24.0204 20.2746 24.0204Z" fill="#514E4C"/>
<path d="M26.6326 23.217C25.9755 23.217 25.4758 22.7836 25.161 22.1569C24.7166 21.2707 24.8739 20.125 25.7601 19.6805C25.8816 19.6198 25.9699 19.7909 26.0914 19.7302C26.9776 19.2857 28.0461 19.6004 28.4905 20.4866C28.935 21.3728 28.5706 22.4661 27.6871 22.9106C27.5657 22.9713 27.596 23.0348 27.4746 23.0955C27.2151 23.2253 26.9031 23.217 26.6326 23.217Z" fill="#514E4C"/>
<path d="M21.0176 33.1227C20.6504 33.1227 20.6504 33.2359 20.2805 33.2359C19.2894 33.2359 18.5605 32.3138 18.5605 31.3227C18.5605 30.3316 19.2894 29.426 20.2805 29.426C20.6477 29.426 20.6477 29.5006 21.0176 29.5006C22.0087 29.5006 22.6989 30.3316 22.6989 31.3227C22.6989 32.3138 22.0087 33.1227 21.0176 33.1227Z" fill="#514E4C"/>
<path d="M29.4845 30.1355C29.1173 30.1355 29.1173 30.0803 28.7473 30.0803C27.7562 30.0803 26.8203 29.2797 26.8203 28.2886C26.8203 27.2975 27.7562 26.3257 28.7473 26.3257C29.1145 26.3257 29.1145 26.5797 29.4845 26.5797C30.4756 26.5797 31.3424 27.2975 31.3424 28.2886C31.3424 29.2797 30.4756 30.1355 29.4845 30.1355Z" fill="#514E4C"/>
<path d="M35.009 25.7433C34.1725 25.7433 33.2724 25.2021 33.0985 24.3518C32.9025 23.38 33.7059 22.5215 34.6777 22.3227C34.9841 22.2592 34.9731 22.2067 35.2823 22.1432C36.2541 21.9472 37.2811 22.4911 37.4771 23.4629C37.6731 24.4346 36.9443 25.365 35.9725 25.561C35.4893 25.6549 35.1249 25.7433 35.009 25.7433Z" fill="#514E4C"/>
<path d="M32.1817 19.4101C31.3204 19.4101 30.4921 18.7669 30.3458 17.8889C30.1829 16.9116 30.8842 15.8046 31.8615 15.6417C32.2286 15.581 32.2783 15.8819 32.6483 15.8211C33.6283 15.6583 34.5781 16.18 34.741 17.1573C34.9038 18.1347 34.2136 19.181 33.2363 19.3439C32.8691 19.4046 32.8774 19.4571 32.5102 19.5206C32.4053 19.5371 32.2783 19.4101 32.1817 19.4101Z" fill="#514E4C"/>
<path d="M32.6761 12.5608C32.019 12.5608 31.2736 12.1991 30.9589 11.5724C30.5144 10.6862 30.9175 9.42179 31.8037 8.97731C32.0494 8.85308 32.1377 9.02701 32.3834 8.90554C33.2696 8.46381 34.4512 8.7178 34.893 9.60401C35.3347 10.4902 34.8847 11.6994 33.9985 12.1411C33.7528 12.2626 33.7831 12.3206 33.5402 12.4448C33.2834 12.5718 32.9466 12.5608 32.6761 12.5608Z" fill="#514E4C"/>
<path d="M42.1234 20.6276C41.5713 20.6276 41.5713 20.8567 41.0191 20.8567C40.028 20.8567 39.0811 19.9236 39.0811 18.9324C39.0811 17.9413 40.028 17.2732 41.0191 17.2732C41.5713 17.2732 41.5713 17.1104 42.1234 17.1104C43.1145 17.1104 43.7495 17.9386 43.7495 18.9297C43.7495 19.9208 43.1145 20.6276 42.1234 20.6276Z" fill="#514E4C"/>
<path d="M38.5066 31.6267C38.3961 31.6267 38.2857 31.4776 38.178 31.4693C37.1897 31.392 36.5989 30.5307 36.6762 29.5423C36.7535 28.554 37.4851 27.6512 38.4735 27.7313C38.5618 27.7396 38.6639 27.9438 38.7468 27.9162C39.6854 27.5988 40.8256 27.9853 41.1431 28.9239C41.4633 29.8626 40.867 31.0801 39.9283 31.3976C39.4894 31.5466 38.9704 31.6267 38.5066 31.6267Z" fill="#514E4C"/>
<path d="M34.4542 36.32C33.7088 36.32 33.1208 35.881 32.8668 35.1356C32.5465 34.197 32.9247 33.1782 33.8606 32.858C34.0428 32.7945 34.0677 32.8635 34.2527 32.8028C35.1913 32.4825 36.315 32.9105 36.6352 33.8491C36.9555 34.7878 36.2901 35.7016 35.3514 36.0218C35.1692 36.0853 35.2162 36.2261 35.034 36.2896C34.8407 36.3559 34.6447 36.32 34.4542 36.32Z" fill="#514E4C"/>
<path d="M27.8585 36.1129C27.2014 36.1129 26.6493 35.7291 26.3345 35.0997C25.8901 34.2135 26.1358 33.1119 27.022 32.6674C27.1462 32.6067 27.1324 32.5763 27.2567 32.5156C28.1429 32.0739 29.2333 32.5432 29.675 33.4322C30.1168 34.3184 29.7551 35.3095 28.8689 35.7512C28.7475 35.8119 28.7392 35.7981 28.6177 35.8589C28.3609 35.9886 28.129 36.1129 27.8585 36.1129Z" fill="#514E4C"/>
<path d="M19.0767 42.0983C18.8034 42.0983 18.5162 42.2253 18.2429 42.1977C17.2573 42.0928 16.465 41.0685 16.5699 40.0829C16.6748 39.0973 17.6411 38.4789 18.6267 38.5838C19.0574 38.628 19.5267 38.6611 19.9518 38.5728C20.9208 38.3685 21.9092 38.8406 22.1108 39.8096C22.3123 40.7786 21.6055 41.64 20.6337 41.8443C20.1147 41.952 19.6067 42.0983 19.0767 42.0983Z" fill="#514E4C"/>
<path d="M13.7122 36.3805C13.5135 36.3805 13.2843 36.4357 13.0883 36.3888C12.1248 36.1597 11.4567 35.036 11.6859 34.0725C11.8819 33.2498 12.7322 32.8136 13.5411 32.8081C14.3003 32.5265 15.2831 32.6121 15.7552 33.3133C16.3101 34.1333 15.907 35.232 15.0871 35.787C14.6592 36.0768 14.223 36.3805 13.7122 36.3805ZM13.1463 32.8578V32.775V32.8578Z" fill="#514E4C"/>
<path d="M5.92427 31.8723C5.86354 31.8723 5.86352 32.1401 5.80278 32.1401C4.81167 32.1401 4 31.2125 4 30.2214C4 29.2303 4.81167 28.4352 5.80278 28.4352C5.86352 28.4352 5.86354 28.3855 5.92427 28.3855C6.91539 28.3855 7.74637 29.2303 7.74637 30.2214C7.74637 31.2125 6.91539 31.8723 5.92427 31.8723Z" fill="#514E4C"/>
<path d="M9.23688 40.8334C8.74546 40.8334 8.74545 40.8058 8.25403 40.8058C7.26292 40.8058 6.63623 39.9251 6.63623 38.934C6.63623 37.9429 7.26292 37.054 8.25403 37.054C8.74545 37.054 8.74546 37.2472 9.23688 37.2472C10.228 37.2472 10.9126 37.9402 10.9126 38.9313C10.9126 39.9224 10.228 40.8334 9.23688 40.8334Z" fill="#514E4C"/>
<path d="M43.2278 26.6243C42.8606 26.6243 42.8606 26.5028 42.4906 26.5028C41.4995 26.5028 40.7817 25.7546 40.7817 24.7635C40.7817 23.7724 41.4995 22.842 42.4906 22.842C42.8578 22.842 42.8578 23.0657 43.2278 23.0657C44.2189 23.0657 45.0002 23.7697 45.0002 24.7608C45.0002 25.7519 44.2189 26.6243 43.2278 26.6243Z" fill="#514E4C"/>
<path d="M7.52805 15.9535C6.73295 15.9535 6.00963 15.5615 5.79981 14.7554C5.54858 13.7974 6.08693 12.7041 7.04492 12.4529C7.53357 12.3259 7.51977 12.2652 8.00842 12.1354C8.9664 11.8842 9.86918 12.6655 10.1204 13.6235C10.3716 14.5814 9.94649 15.6278 8.9885 15.879C8.49985 16.006 8.49158 15.9729 8.00016 16.1026C7.84832 16.1385 7.67713 15.9535 7.52805 15.9535Z" fill="#514E4C"/>
<path d="M25.0675 8.70119C24.1675 8.70119 23.3337 8.17113 23.2316 7.25455C23.1212 6.26896 23.9052 5.55669 24.888 5.44626C25.4402 5.38276 25.4043 5.07355 25.9565 5.01006C26.942 4.89963 28.016 5.71405 28.1292 6.69964C28.2424 7.68523 27.3755 8.72328 26.3927 8.83371C25.8405 8.89721 25.8102 8.62113 25.2552 8.68463C25.1862 8.69291 25.1338 8.70119 25.0675 8.70119Z" fill="#514E4C"/>
</svg>
