<svg width="120" height="120" viewBox="0 0 120 120" fill="none" xmlns="http://www.w3.org/2000/svg">
<path d="M59.0373 80.6015H62.5895C62.5895 71.4712 62.7601 67.297 62.8904 64.1203C79.0975 74.2616 80.3415 82.1562 87.8904 86.5191C92.8168 89.3634 98.1249 87.8716 100.496 83.7603C102.867 79.649 101.506 74.302 96.58 71.4578C88.9907 67.0723 81.4911 69.993 64.4127 60.8402C81.4911 51.6874 88.9907 54.6036 96.58 50.2226C101.506 47.3784 102.867 42.0314 100.496 37.9201C98.1249 33.8088 92.8168 32.3125 87.8904 35.1612C80.301 39.5467 79.0841 47.5042 62.6164 57.7309C63.2362 38.3515 69.5098 33.31 69.5098 24.5437C69.5098 18.8507 65.5624 15 60.8156 15C56.0689 15 52.1215 18.8507 52.1215 24.5437C52.1215 33.31 58.3996 38.3559 59.0148 57.7309C42.5427 47.5042 41.3302 39.5467 33.7409 35.1612C28.8145 32.317 23.5064 33.8088 21.1353 37.9201C18.7642 42.0314 20.1249 47.3784 25.0513 50.2226C32.6406 54.6081 40.1402 51.6874 57.2185 60.8402C40.1402 69.993 32.6406 67.0723 25.0513 71.4578C20.1249 74.302 18.7642 79.649 21.1353 83.7603C23.5064 87.8716 28.8145 89.3679 33.7409 86.5191C41.2898 82.1607 42.5338 74.266 58.7409 64.1203C58.8711 67.297 59.0418 71.4712 59.0418 80.6015H59.0373Z" fill="#65BFC4"/>
<path d="M51.7534 97.5993C51.7534 102.605 55.8086 106.667 60.8158 106.667C65.823 106.667 69.8781 102.609 69.8781 97.5993C69.8781 92.5893 65.823 88.5319 60.8158 88.5319C55.8086 88.5319 51.7534 92.5893 51.7534 97.5993Z" fill="#65BFC4"/>
</svg>
