<svg width="48" height="48" viewBox="0 0 48 48" fill="none" xmlns="http://www.w3.org/2000/svg">
<path d="M19.8266 7.04302C10.9822 6.80781 6.75786 7.82705 5.08511 9.94391C3.41235 12.0608 5.56038 16.1508 12.4558 16.2187C17.8591 16.271 18.5495 16.271 18.7088 18.806C18.8017 20.2774 6.5189 17.5516 3.89028 20.1389C1.26167 22.7261 0.305809 28.7657 8.27131 29.0794C16.2395 29.393 25.5618 28.5567 26.5973 29.5498C27.3965 30.3155 26.7566 31.8365 25.0838 32.1527C23.4111 32.4664 15.3633 31.3687 11.9381 32.78C11.5611 32.9341 10.3211 33.8645 9.91751 35.3829C9.3732 37.4266 10.7645 39.3109 10.876 39.4599C12.8169 42.0132 16.6112 40.4765 25.5617 40.7404C30.6012 40.8894 36.055 41.5741 40.6192 39.8519C41.8167 39.3998 43.1549 38.7072 43.5399 37.4475C43.885 36.3211 43.3938 34.9909 42.6902 34.1808C39.6235 30.6448 30.8004 34.9517 29.3055 32.3514C28.8621 31.583 28.8223 29.7641 29.741 29.67C30.5481 29.5864 38.4685 31.0786 43.6461 28.3554C48.8236 25.6323 44.7612 19.5927 38.2269 19.1222C31.6925 18.6518 21.4967 20.3113 20.7771 18.2598C19.954 15.9077 20.6975 16.4565 29.2232 16.2213C37.749 15.9861 37.6693 8.85935 33.2856 7.79568C28.9073 6.72941 19.8266 7.04302 19.8266 7.04302Z" fill="#B2A5C4"/>
<path d="M18.1459 19.2828C15.7137 19.7357 6.17107 17.9919 3.89028 20.225C1.26167 22.8016 0.305809 28.8163 8.27131 29.1286C16.2395 29.4409 25.5618 28.608 26.5973 29.597C27.3965 30.3596 26.7566 31.8743 25.0838 32.1893C23.4111 32.5016 15.3633 31.4085 11.9381 32.8139C11.5611 32.9674 10.3211 33.894 9.91751 35.4061C9.3732 37.4414 10.7645 39.3179 10.876 39.4662C12.8169 42.009 16.6112 40.4786 25.5617 40.7415C30.6012 40.8899 36.055 41.5718 40.6192 39.8566C41.8167 39.4064 43.1549 38.7167 43.5399 37.4622C43.885 36.3405 43.3938 35.0157 42.6902 34.2089C39.6235 30.6875 30.6145 32.9128 29.6056 32.3975C28.809 31.9915 28.8223 29.8105 29.741 29.7168C30.5481 29.6335 38.4685 31.1196 43.6461 28.4076C48.8236 25.6957 44.7612 19.681 38.2269 19.2125C38.2269 19.2125 34.2574 18.9549 31.2491 19.0069C25.729 19.1032 25.3653 19.3947 22.126 19.1553" fill="#A190AF"/>
<path d="M24.9032 32.1491C23.273 32.4628 15.4298 31.3647 12.0918 32.7766C11.7244 32.9308 10.5159 33.8616 10.1226 35.3806C9.59215 37.4251 10.9481 39.3102 11.0567 39.4592C12.9483 42.0136 16.646 40.4763 25.3689 40.7403C30.2803 40.8893 35.5953 41.5744 40.0434 39.8514C41.2104 39.3991 42.5146 38.7062 42.8898 37.4461C43.2262 36.3192 42.7475 34.9884 42.0618 34.1779C39.073 30.6405 31.5948 32.5177 29.0175 32.3478" fill="#97849B"/>
</svg>
