<svg width="48" height="48" viewBox="0 0 48 48" fill="none" xmlns="http://www.w3.org/2000/svg">
<path d="M3.24692 32.2769L3 29.4706L3.81633 26.336L6.15487 23.89L9.03378 22.0656L11.8459 20.2384L15.178 19.9769L12.6883 17.9172L9.69614 16.485L6.42506 16.3049L6.50928 11.988L9.58866 12.2727L12.7087 12.8102L15.2302 14.774L17.7751 16.4676L19.7301 18.9369L19.5675 19.4249L20.012 20.035L22.2634 21.3307L24.8546 22.1208L26.3943 24.3548L28.4656 25.9787L29.555 28.3783L30.9727 30.621L34.0578 31.0451L37.0297 31.8092L39.8737 33.0118L42.3401 34.8682L44.6177 36.6315L41.9944 40.106L39.5019 38.2613L37.3115 36.3759L34.6621 35.1964L31.7164 34.8275L31.208 37.6338L30.7054 40.4371L28.454 43.0865L25.488 44.7598L22.2343 46.0003L19.9887 45.2595L18.0336 43.897L16.982 40.6957L17.9813 37.5466L19.0213 35.0599L20.8951 32.9566L23.6462 32.2565L26.7604 31.1032L24.4334 28.2824L22.06 25.7579L20.2385 25.0433L19.2915 27.4632L17.6095 29.6914L16.0262 31.9457L14.1786 34.0431L11.7674 35.4579L8.71714 36.5676L5.71621 35.3272L3.24111 32.2856L3.24692 32.2769ZM15.7561 24.2183L13.1183 24.4013L10.8 25.5284L8.43245 27.0304L6.70684 29.3718L8.14195 31.234L9.79781 31.6087L12.3136 29.6275L14.6376 27.3412L15.7532 24.2183H15.7561ZM27.5302 35.1674L25.1016 35.6119L23.0884 36.9395L21.5197 38.8016L21.7957 41.5614L24.4712 40.2164L26.6093 38.4733L27.5302 35.1645V35.1674Z" fill="#EDA9B2"/>
<path d="M34.0203 2L32.1232 2.25855L30.5749 3.51934L29.6075 5.39019L27.9981 4.3008L26.2928 3.46995L24.4365 3.76046L22.8852 5.06192L22.8213 7.2407L24.4191 8.81524L26.3306 9.78262L25.828 11.5692L25.3981 13.4401L25.4475 15.3371L26.5456 16.8622L28.4716 17.0307L30.081 15.9152L31.1297 14.2157L31.8037 12.4872L33.6745 13.565L35.7923 14.2331L38.0001 13.9078L39.1767 12.4901L38.8513 10.6164L37.3407 9.42529L35.8533 8.22551L33.9796 7.83624L35.1735 5.77075L35.4292 3.56582L34.0203 2Z" fill="#EABDA9"/>
<path d="M42.2591 17.3971L39.9903 17.3594L38.4361 19.0094L37.0388 18.4575L35.4526 18.5069L33.9536 20.0611L34.5114 22.0946L36.0336 23.6401L35.412 25.752L36.2515 27.6171L37.9103 28.2678L39.5226 27.6636L40.4725 26.1791L42.2185 26.9402L44.0719 26.519L45.2542 24.898L44.3072 23.0823L42.7297 21.6647L43.6448 19.3755L42.2591 17.3971Z" fill="#EAB9B9"/>
</svg>
