<svg width="48" height="48" viewBox="0 0 48 48" fill="none" xmlns="http://www.w3.org/2000/svg">
<path d="M3.96777 35.199C5.0652 34.1504 5.94855 33.221 6.63681 31.9312C7.03243 31.205 7.44972 30.4056 7.8914 29.6848C8.46314 28.7229 9.15682 27.7637 9.87218 26.8776C11.2704 25.9211 12.7661 25.0133 14.3973 24.3847C16.0719 23.691 18.3589 23.29 19.9766 23.0136C20.8247 22.8564 21.5048 22.7074 22.1606 22.4771L21.1445 23.0028C22.4045 22.1194 23.3258 21.3688 24.2985 20.1739C24.9136 19.4314 25.5043 18.6212 26.1655 17.9113C27.0516 16.9114 28.1056 16.0497 29.157 15.2422C31.1161 14.3507 33.4925 13.8332 35.6846 13.9904C38.2832 14.1313 40.3588 15.0634 42.8111 14.3724L44.7539 18.2175C43.12 19.4124 40.9631 20.06 38.9606 20.182C37.5245 20.2877 35.8228 20.2741 34.6577 20.6508C33.9206 20.8675 33.2622 21.1954 32.5875 21.5937L33.357 21.0843C32.5956 21.8782 31.9534 22.7508 31.3681 23.6775C31.1324 24.0216 30.8207 24.531 30.5823 24.867C29.3006 26.8153 27.3171 28.5955 25.4312 29.9396C24.1251 30.43 22.6158 30.8256 21.3775 31.0153C19.833 31.2673 18.8521 31.3486 17.5406 31.6738C16.4269 31.9501 15.4352 32.3566 14.3567 32.8769L15.2211 32.1615C14.6819 32.6818 14.186 33.2074 13.6793 33.7927C13.1211 34.4376 12.506 35.2343 11.9126 35.8927C10.5333 37.4969 8.57424 38.7867 6.66662 39.5508L3.96777 35.199Z" fill="#99C9C9"/>
<path d="M16.6377 40.7645C17.6132 40.0465 18.4965 39.3609 19.22 38.6429C20.1549 37.727 20.7158 36.9032 21.8864 35.944C23.0515 35.0254 24.3169 34.2423 25.7991 33.8847C26.1866 33.7952 26.5877 33.7302 26.967 33.6869L27.2922 33.6543C28.1132 33.5839 28.2649 33.5405 28.46 33.4619C28.6524 33.3915 28.937 33.2804 29.3 33.107L28.8367 33.3698L30.327 32.3889C33.4459 30.2401 35.9334 29.0181 39.8759 29.4218C41.4232 29.5844 42.9054 29.8147 44.4634 29.7822L45.9998 33.8603C44.7507 34.7328 43.1899 35.3127 41.7321 35.646C40.5967 35.9332 39.3449 36.0795 38.4208 36.467C37.7163 36.7651 37.085 37.326 36.4834 37.8137C35.5377 38.5887 34.3672 39.4747 33.2914 40.1711L33.0584 40.3256C32.1615 40.751 31.2483 41.1249 30.0831 41.3363C29.0345 41.5395 27.9046 41.4772 27.4602 41.4284C27.0158 41.3878 27.051 41.3092 26.7692 41.3038C26.6337 41.3038 26.4359 41.3146 26.2923 41.3661C25.0133 41.7888 23.7642 42.9052 22.3931 43.5013C20.9867 44.1679 19.556 44.5662 18.1605 44.7559L16.6404 40.77L16.6377 40.7645Z" fill="#A5D3D1"/>
<path d="M3 19.5558C4.33858 17.4287 6.50904 15.9492 8.15111 14.1527L8.97756 13.6379C10.3487 12.722 11.9663 12.2207 13.2236 11.2859C13.4323 11.1422 13.4377 11.1531 13.622 10.874C14.1585 9.98249 15.1177 8.46778 16.0634 7.65217C16.6405 7.09939 17.2665 6.65229 17.8843 6.27565L18.3097 6.00739C20.0222 5.227 22.0762 4.68777 23.8944 4.50893C25.5012 4.33551 26.6555 4.35719 28.1404 3.99951L30.3976 7.72533C27.9372 10.0584 24.4011 10.5326 21.7835 12.4727L22.209 12.2044C21.3364 13.1474 21.2714 13.7137 20.5669 14.9656C19.4478 17.1496 17.1391 18.7104 14.8305 19.4555C13.7412 19.8105 12.8714 19.9243 11.8688 20.1411L12.6952 19.629C12.3782 19.8403 12.0558 20.0463 11.7279 20.2386C10.3649 21.0326 8.7933 21.5745 7.38698 22.1436C6.85317 22.3603 6.31394 22.5961 5.7422 22.8183L3 19.5558Z" fill="#A5D3D1"/>
</svg>
