<svg width="48" height="48" viewBox="0 0 48 48" fill="none" xmlns="http://www.w3.org/2000/svg">
<path d="M39.9288 17.2183C38.932 16.304 37.9484 16.3467 37.1062 15.9922C35.1151 15.1579 33.7184 15.5417 33.7184 15.5417C33.7184 15.5417 34.1742 11.6289 30.8477 8.96612C29.4457 7.84397 30.4666 6.96971 27.6492 6.29269C25.8794 5.86889 23.9816 5.82891 21.5321 6.68984C19.2585 7.48947 17.8724 8.50233 17.0408 9.68578C15.4416 11.9621 15.4042 14.1344 15.4042 14.1344C15.4042 14.1344 14.6366 12.9323 12.6589 12.7644C11.7233 12.6844 9.71888 12.4765 8.65271 12.8896C7.41329 13.3667 6.45905 14.6062 5.44085 15.4804C4.60924 16.1948 3.90558 17.0717 3.4178 18.1672C2.8394 19.4626 2.56486 21.0618 2.74344 23.0476C3.29519 29.218 5.23298 33.5041 5.23298 33.5041C5.23298 33.5041 5.07038 36.2708 12.3577 39.3467C16.1026 40.9273 24.8372 40.3196 24.8372 40.3196C25.2263 40.7434 27.8065 40.3169 28.9979 39.9277C30.9117 39.304 31.8713 38.4484 32.7055 36.3347C33.5798 34.1251 36.1733 33.8852 36.0027 33.5707C36.0027 33.5707 34.7499 32.7684 39.0946 29.8684C41.6907 28.1332 42.6716 25.2705 42.3251 22.5891C42.0825 20.79 41.2776 18.455 39.9288 17.2183Z" fill="#EADBCE"/>
<path d="M1.13319 25.8039C0.624092 27.0273 1.71158 26.6995 2.09541 28.3547C2.26333 29.077 2.33529 29.9593 2.42858 30.9828C2.49522 31.7051 2.6498 32.7233 2.98298 33.7335C3.26818 34.5998 3.79861 35.4181 4.393 36.1351C4.97407 36.8334 5.65375 37.5637 6.62664 37.8063C7.67148 38.0648 8.43913 38.7285 9.22543 39.4402C10.0624 40.1945 10.9366 40.9595 11.9495 41.1168C13.3648 41.338 14.6256 41.346 15.6624 41.4686C18.0373 41.7458 17.6935 42.66 19.3887 41.8951C18.9836 41.4206 17.7974 40.7756 17.307 39.7281C16.8032 38.6512 14.7482 39.0031 14.6842 38.7232C14.447 37.665 14.0579 36.7748 13.69 35.9112C13.2982 34.9916 13.0556 33.9947 12.3733 33.2058C11.4057 32.0863 10.161 32.3768 9.05751 32.6194C7.94869 32.8619 6.7279 33.2751 5.77368 32.1423C5.35521 31.6438 4.96873 30.631 4.55026 29.6074C4.19575 28.7358 3.9985 27.731 3.54271 27.0166C2.95632 26.0864 2.07942 25.4947 1.13319 25.8039Z" fill="#AF8864"/>
<path d="M46.7623 31.5903C46.0693 32.7498 45.283 31.0679 43.8437 31.1239C42.9508 31.1585 41.9539 31.3851 41.1676 31.7156C40.296 32.0834 39.8429 32.8084 39.7603 33.8133C39.6616 34.9994 39.1392 36.0469 38.5848 36.9931C38.0304 37.9394 37.4093 38.9709 36.3672 39.5839C35.4876 40.101 34.3255 40.3676 33.078 40.5808C32.1425 40.7407 30.927 40.81 29.6236 40.9566C28.5122 41.0792 27.3447 41.4044 26.1852 41.5084C24.9591 41.6177 23.7677 41.7722 22.7255 41.8522C20.7078 42.0068 20.817 42.5719 19.3084 41.7163C19.0925 40.6821 20.1347 40.4955 21.8886 40.213C22.8588 40.0557 24.0396 39.9704 25.2817 39.6106C26.3078 39.3121 27.2941 38.7363 28.3549 38.1046C29.3598 37.5076 30.0154 37.0624 30.5405 36.1349C30.9297 35.4472 31.119 34.469 31.8226 33.4055C32.4223 32.5019 33.2593 31.8222 34.0589 31.2198C34.9039 30.5854 35.9221 30.2922 36.8523 29.8951C37.8492 29.4713 38.7847 28.9808 39.715 28.7143C40.8798 28.3785 42.0259 28.3731 42.7855 28.0719C43.8384 27.6535 44.8059 27.84 45.4403 28.6583C46.2986 29.7725 47.5193 30.3216 46.7623 31.5903Z" fill="#AF8864"/>
<path d="M30.4631 23.1863C29.7115 25.0068 29.0958 24.5457 28.0909 26.2782C27.4325 27.4137 26.8648 28.6664 27.2033 29.9592C27.4379 30.8521 27.3366 31.9636 27.2086 33.1577C27.0993 34.1892 27.1473 35.3433 26.7662 36.3669C26.3823 37.3984 25.66 38.2726 24.9963 39.0776C24.2927 39.9332 23.533 40.7888 22.5121 41.138C20.8996 41.6871 20.9129 41.8816 19.2497 41.9936C18.8445 41.839 18.3381 41.3272 17.837 40.7888C17.3625 40.277 16.8588 39.744 16.6695 38.6325C16.5602 37.9928 16.475 37.1771 16.4297 36.1456C16.315 33.4296 18.7832 32.9391 19.0124 32.2728C19.4416 31.0307 19.7827 30.0258 20.4145 29.1969C21.0542 28.3572 21.9657 27.7815 22.9839 26.9872C23.5623 26.5341 24.314 25.8491 25.2709 25.3693C26.1131 24.9482 26.9874 24.4657 27.8003 24.1165C29.253 23.4955 30.9989 21.8882 30.4631 23.1863Z" fill="#AF8864"/>
</svg>
