<svg width="100" height="128" viewBox="0 0 100 128" fill="none" xmlns="http://www.w3.org/2000/svg">
<path d="M30.3975 111.237C30.7979 111.257 31.1224 111.312 31.3717 111.401C31.621 111.49 31.8439 111.634 32.0403 111.832C32.258 112.051 32.4074 112.328 32.4877 112.663C32.568 112.999 32.6089 113.519 32.6089 114.223V121.635L24.055 111H20V111.236C20.4073 111.256 20.7352 111.311 20.9845 111.4C21.2338 111.489 21.4533 111.633 21.6428 111.831C21.8606 112.05 22.01 112.329 22.0902 112.668C22.1705 113.006 22.2115 113.521 22.2115 114.212V121.789C22.2115 122.487 22.1714 123.005 22.0902 123.343C22.0091 123.683 21.8597 123.961 21.6428 124.18C21.4464 124.378 21.2227 124.522 20.9743 124.611C20.7249 124.7 20.4005 124.755 20 124.775V125.011H24.8559V124.775C24.4554 124.755 24.131 124.7 23.8816 124.611C23.6323 124.522 23.4095 124.379 23.2131 124.18C22.9953 123.961 22.8459 123.683 22.7657 123.349C22.6845 123.014 22.6444 122.493 22.6444 121.789V112.857L32.5671 125.012H33.041V114.212C33.041 113.521 33.0811 113.006 33.1623 112.668C33.2425 112.328 33.3919 112.05 33.6097 111.831C34.0024 111.435 34.5506 111.236 35.2534 111.236V111H30.3975V111.236V111.237Z" fill="#65BFC4"/>
<path d="M61.8477 111.001H56.9918V111.237C57.3923 111.257 57.7167 111.312 57.9661 111.401C58.2154 111.49 58.4382 111.634 58.6346 111.832C58.8524 112.051 59.0018 112.328 59.0821 112.663C59.1623 112.999 59.2033 113.519 59.2033 114.223V121.635L50.6493 111H46.5935V111.236C47.0008 111.256 47.3287 111.311 47.578 111.4C47.8273 111.489 48.0468 111.633 48.2363 111.831C48.4541 112.05 48.6035 112.329 48.6838 112.668C48.764 113.006 48.805 113.521 48.805 114.212V121.789C48.805 122.487 48.764 123.005 48.6838 123.343C48.6026 123.683 48.4532 123.961 48.2363 124.18C48.0399 124.378 47.8162 124.522 47.5678 124.611C47.3184 124.7 46.994 124.755 46.5935 124.775V125.011H51.4494V124.775C51.0489 124.755 50.7245 124.7 50.4752 124.611C50.2258 124.522 50.003 124.379 49.8066 124.18C49.5888 123.961 49.4394 123.683 49.3592 123.349C49.278 123.014 49.2379 122.493 49.2379 121.789V112.857L59.1606 125.012H59.6345V114.212C59.6345 113.521 59.6746 113.006 59.7558 112.668C59.836 112.328 59.9854 112.05 60.2032 111.831C60.596 111.435 61.1441 111.236 61.8469 111.236V111L61.8477 111.001Z" fill="#65BFC4"/>
<path d="M69.0202 123.854C68.7965 124.072 68.5147 124.244 68.1748 124.367C67.835 124.49 67.4764 124.552 67.099 124.552C66.5884 124.552 66.1 124.442 65.6346 124.223C65.1693 124.005 64.779 123.703 64.464 123.32C64.1557 122.945 63.9124 122.472 63.7339 121.904C63.5555 121.336 63.4667 120.754 63.4667 120.159C63.4667 120.008 63.4803 119.765 63.5085 119.43H69.6819C69.6819 118.568 69.4258 117.848 68.9126 117.274C68.5821 116.904 68.1783 116.622 67.701 116.428C67.2236 116.233 66.7036 116.135 66.1418 116.135C65.0881 116.135 64.1506 116.454 63.3292 117.091C62.1987 117.966 61.6334 119.174 61.6334 120.715C61.6334 121.844 61.9314 122.795 62.5291 123.568C62.9578 124.123 63.4803 124.533 64.0985 124.8C64.7167 125.067 65.457 125.201 66.3211 125.201C67.3184 125.201 68.1168 124.998 68.7179 124.59C69.3182 124.183 69.7101 123.579 69.8928 122.778L69.6717 122.706C69.4898 123.233 69.2729 123.616 69.021 123.856L69.0202 123.854ZM64.3735 117.12C64.8243 116.613 65.3503 116.36 65.9514 116.36C66.3075 116.36 66.643 116.458 66.9581 116.652C67.2723 116.847 67.5242 117.113 67.7129 117.448C67.923 117.818 68.0519 118.345 68.1006 119.028H63.5708C63.6545 118.262 63.9218 117.625 64.3735 117.119V117.12Z" fill="#65BFC4"/>
<path d="M78.7891 122.622C78.5218 123.415 78.1043 123.966 77.5356 124.275C77.241 124.432 76.8338 124.548 76.3138 124.624C75.7937 124.699 75.1303 124.737 74.3225 124.737H72.9L78.778 116.504V116.288H71.7413L71.5202 118.444L71.72 118.464C71.9232 117.917 72.1375 117.517 72.3629 117.263C72.6012 117.003 72.8735 116.821 73.1792 116.719C73.4849 116.616 73.9187 116.565 74.4805 116.565H76.7876L70.9097 124.809V125.014H78.7788L79 122.652L78.7891 122.622Z" fill="#65BFC4"/>
<path d="M44.6569 117.933C45.5706 116.871 46.0743 115.264 45.5091 113.856C45.4715 113.768 45.4254 113.695 45.3742 113.636C45.0924 113.234 44.5954 112.986 44.0439 113.052C43.4128 113.127 42.9039 113.63 42.8331 114.246C42.7392 115.067 43.3966 115.763 44.2206 115.763C44.2223 115.763 44.2249 115.763 44.2274 115.763C44.5681 115.761 44.826 116.051 44.7637 116.377C44.6749 116.842 44.4913 117.29 44.2505 117.64C43.844 118.268 43.2634 118.745 42.6008 119.099V118.741C42.6008 118.255 42.5727 117.91 42.5163 117.704C42.4036 117.301 42.1193 116.972 41.6616 116.719C41.3448 116.548 40.9512 116.408 40.4798 116.298C40.0085 116.188 39.5551 116.134 39.1188 116.134C38.732 116.134 38.3367 116.173 37.9319 116.252C37.5272 116.33 37.1882 116.431 36.9133 116.554C36.4069 116.794 36.1533 117.088 36.1533 117.436C36.1533 117.669 36.2344 117.863 36.3958 118.017C36.5572 118.17 36.7579 118.247 36.9961 118.247C37.3607 118.247 37.6143 118.087 37.7543 117.765L38.0173 117.169C38.1292 116.916 38.2982 116.717 38.5228 116.574C38.7474 116.43 39.0035 116.358 39.2921 116.358C39.5303 116.358 39.7609 116.41 39.982 116.512C40.2032 116.615 40.3842 116.752 40.5242 116.923C40.8333 117.293 40.9879 117.877 40.9879 118.679C40.9879 119.055 41.0092 119.642 41.0092 119.642C41.0092 119.642 40.596 119.89 39.7899 120.13C39.0377 120.354 38.9233 120.375 38.3127 120.537C37.7927 120.677 37.3966 120.815 37.1225 120.951C36.8484 121.088 36.6067 121.27 36.3958 121.498C36.0235 121.911 35.8374 122.422 35.8374 123.033C35.8374 123.696 36.0645 124.222 36.5179 124.612C36.9713 125.002 37.5853 125.197 38.3589 125.197C38.9634 125.197 39.4945 125.074 39.9522 124.827C40.1912 124.697 40.5464 124.427 41.0178 124.017C41.25 124.407 41.4746 124.68 41.6932 124.838C42.0236 125.077 42.4386 125.197 42.9381 125.197C43.844 125.197 44.4238 124.838 44.6766 124.119L44.4973 124.017C44.329 124.242 44.183 124.393 44.0601 124.469C43.9371 124.544 43.7672 124.581 43.5495 124.581C43.0926 124.581 42.8049 124.339 42.6854 123.853C42.629 123.62 42.6008 123.182 42.6008 122.539V119.608C43.3727 119.164 44.0857 118.602 44.6578 117.932L44.6569 117.933ZM41.0092 121.688C41.0092 122.557 40.9008 123.22 40.6839 123.679C40.5302 124.029 40.3005 124.307 39.9957 124.516C39.6909 124.724 39.3673 124.828 39.024 124.828C38.6321 124.828 38.3076 124.642 38.0523 124.325C37.797 124.009 37.6689 123.607 37.6689 123.121C37.6689 122.555 37.8337 122.058 38.1625 121.63C38.3238 121.425 38.5134 121.239 38.7269 121.117C38.9608 120.983 39.2358 120.844 39.772 120.627C40.3441 120.397 41.0084 120.056 41.0084 120.056V121.686L41.0092 121.688Z" fill="#65BFC4"/>
<path d="M49.1978 67.1679H52.158C52.158 59.5594 52.3002 56.0808 52.4087 53.4336C65.9147 61.8846 66.9513 68.4635 73.2421 72.0993C77.3474 74.4695 81.7708 73.2264 83.7467 69.8003C85.7227 66.3741 84.5888 61.9183 80.4835 59.5481C74.159 55.8936 67.9093 58.3275 53.6774 50.7002C67.9093 43.0729 74.159 45.503 80.4835 41.8522C84.5888 39.482 85.7227 35.0262 83.7467 31.6001C81.7708 28.174 77.3474 26.9271 73.2421 29.301C66.9176 32.9555 65.9035 39.5868 52.1805 48.1091C52.6969 31.9595 57.9249 27.7583 57.9249 20.4531C57.9249 15.7089 54.6354 12.5 50.6798 12.5C46.7242 12.5 43.4347 15.7089 43.4347 20.4531C43.4347 27.7583 48.6664 31.9633 49.1791 48.1091C35.4524 39.5868 34.4419 32.9555 28.1175 29.301C24.0122 26.9308 19.5888 28.174 17.6128 31.6001C15.6369 35.0262 16.7708 39.482 20.8761 41.8522C27.2006 45.5067 33.4502 43.0729 47.6822 50.7002C33.4502 58.3275 27.2006 55.8936 20.8761 59.5481C16.7708 61.9183 15.6369 66.3741 17.6128 69.8003C19.5888 73.2264 24.0122 74.4732 28.1175 72.0993C34.4083 68.4673 35.4449 61.8884 48.9508 53.4336C49.0594 56.0808 49.2016 59.5594 49.2016 67.1679H49.1978Z" fill="#65BFC4"/>
<path d="M43.1279 81.3328C43.1279 85.504 46.5072 88.8889 50.6799 88.8889C54.8525 88.8889 58.2318 85.5078 58.2318 81.3328C58.2318 77.1578 54.8525 73.7766 50.6799 73.7766C46.5072 73.7766 43.1279 77.1578 43.1279 81.3328Z" fill="#65BFC4"/>
</svg>
