<svg width="48" height="48" viewBox="0 0 48 48" fill="none" xmlns="http://www.w3.org/2000/svg">
<path d="M21.7309 20.3405C22.0905 20.2994 22.5272 20.0015 22.5323 19.6393C22.54 18.8687 22.409 16.8729 22.2318 14.7229C22.0931 13.061 21.8028 11.3323 21.1042 9.99152C20.3027 8.45547 19.0133 7.60269 17.1716 7.01704C15.7819 6.57523 14.1329 6.16939 12.1936 5.85345C10.4469 5.5709 8.37144 5.481 5.98261 5.81235C5.59475 5.86629 5.4509 6.35176 5.48943 6.73963C5.623 8.04706 5.90042 11.0678 7.48526 13.9087C8.25842 15.2983 9.46311 16.5004 10.863 17.6229C12.0728 18.5913 13.4239 19.6393 15.2323 20.1196C17.0354 20.6025 19.2085 20.6205 21.7309 20.3405Z" fill="#4BAF8B"/>
<path d="M30.8395 26.0992C31.6564 21.879 32.2035 22.0023 33.3029 17.8488C34.4022 13.6953 34.094 13.6131 35.1985 9.45707C35.3192 9.03581 35.4528 8.87913 35.2293 8.88169C31.0348 8.61712 31.0219 8.80207 26.8299 8.52979C26.722 8.52979 26.4395 8.52722 26.4472 8.62997C26.478 12.4829 26.7657 12.4829 26.7914 16.3359C26.8196 20.1888 26.442 20.1965 26.5422 24.0495C26.6424 27.9153 25.4043 28.2749 27.169 31.7168C27.9652 33.2709 29.2085 32.639 30.4902 31.4523C32.4835 29.608 30.3258 28.7501 30.8395 26.0992Z" fill="#F27766"/>
<path d="M31.2734 26.5493C33.2076 25.5707 34.5587 25.3831 36.7086 25.9791C38.7635 26.5493 40.6104 27.3738 41.9692 28.5939C43.102 29.6111 43.6593 31.6095 44.2296 33.7492C45.4112 38.1801 45.7399 40.104 45.5499 41.3678C45.4934 41.7428 45.1055 41.6734 44.7382 41.6734C39.6626 41.6734 39.6626 42.2 34.5844 42.2C29.5087 42.2 29.5087 41.6477 24.4331 41.6477C19.3575 41.6477 19.3575 42.182 14.2793 42.182C9.2037 42.182 9.20369 42.1152 4.12551 42.1152C3.82497 42.1152 3.21621 41.8224 3.20593 41.5116C3.10062 37.6946 4.4697 34.8588 5.27368 32.7808C6.43214 29.7909 8.53328 28.0699 10.4084 26.7651C12.8075 25.0955 15.2965 23.8266 18.5227 23.5877C20.5725 23.4361 24.3304 24.4122 26.2003 26.1024C27.4667 27.5639 27.1816 27.7771 28.322 29.3363C28.3734 29.4236 28.6328 29.2643 28.6919 29.1822C29.7296 27.6538 29.8093 27.6281 31.2734 26.5493Z" fill="#F27766"/>
</svg>
