<svg width="48" height="48" viewBox="0 0 48 48" fill="none" xmlns="http://www.w3.org/2000/svg">
<path d="M25.3847 41.7413C25.3286 42.0727 25.4765 42.5571 25.8002 42.654C27.0239 43.0211 31.7223 43.067 34.8962 42.4373C36.4462 42.1288 37.8177 41.5272 39.0719 40.357C40.0713 39.424 40.989 38.1952 41.7972 36.4948C42.5008 35.0111 42.9749 32.7728 43.2962 30.5549C43.3471 30.1955 42.33 30.1751 41.7997 30.2694C40.5888 30.4836 38.5876 30.3357 35.5309 32.2171C33.1754 33.6676 31.2609 34.0475 28.6019 36.6835C27.2661 38.0066 25.7849 39.4189 25.3847 41.7413Z" fill="#F2B0A7"/>
<path d="M21.8205 42.3608C21.8689 42.6769 20.7676 42.524 20.4388 42.6106C19.7301 42.7993 17.9379 43.2199 15.901 43.1995C14.3561 43.1842 12.6838 43.0415 11.3097 42.7636C9.77501 42.4526 8.38308 41.7923 7.16451 40.691C6.16518 39.786 5.37745 38.4884 4.60245 36.8364C3.93708 35.419 4.2583 33.5529 4.00336 31.4446C3.96258 31.1005 4.29908 30.9781 4.66364 30.9195C5.88985 30.7257 7.80694 30.4683 10.8355 32.2987C12.077 33.0507 13.6856 33.4968 15.1999 34.3305C16.5281 35.0621 17.6932 36.1762 18.9117 37.3642C20.2195 38.6414 21.4891 40.1506 21.8205 42.3608Z" fill="#F2B0A7"/>
<path d="M24.2573 32.4336C20.4639 32.5254 17.2339 31.6739 14.7075 30.4018C11.5846 28.8264 9.32594 26.2974 8.00795 23.4269C6.68231 20.5411 6.59563 17.1684 6.94743 13.8542C7.68164 6.93287 8.46683 5.26307 11.6331 4.87557C14.7764 4.49317 16.1759 6.4281 17.0733 8.93663C17.8228 11.0322 18.4627 13.6248 18.5341 16.2481C18.5341 16.2557 19.3422 16.3704 19.3447 16.3628C19.3804 16.1053 19.5869 13.7319 20.0203 10.5096C20.4613 7.23623 21.8125 4.72771 24.6703 4.80164C27.8034 4.88322 28.9404 7.46312 29.4018 10.1093C29.9091 13.0155 29.338 16.3424 29.3024 17.7368C29.2998 17.8159 30.3756 17.8337 30.3986 17.7598C30.9569 15.9753 31.8899 6.64224 35.798 6.89208C38.4442 7.06033 40.7386 8.44971 40.5627 14.9708C40.4734 18.3053 39.7928 21.8463 38.1893 24.5945C36.9426 26.7334 34.9108 28.4057 33.0549 29.7135C31.0002 31.1615 28.3209 32.3368 24.2573 32.4336Z" fill="#F7A5B3"/>
</svg>
