<svg width="48" height="48" viewBox="0 0 48 48" fill="none" xmlns="http://www.w3.org/2000/svg">
<path d="M44 25.4265C44 28.1533 43.1323 31.1244 41.3996 34.3142C35.5934 45.0026 25.3491 45.8541 20.7435 44.5164C16.8298 43.3794 5.02591 37.342 4.09796 29.7739C3.32466 23.4638 7.19116 13.6526 13.5269 8.801C19.4748 4.24783 23.4146 2.48315 29.7452 3.12883C36.018 3.76679 39.5856 5.42342 39.7482 5.54433L38.06 11.075C38.0469 11.0647 33.7558 9.22288 29.1475 8.75213C24.6807 8.29681 22.18 8.83702 17.0343 12.7754C12.3578 16.3562 9.7653 24.2998 10.363 29.19C10.8636 33.2801 18.4341 38.6462 22.3897 39.7986C22.7514 39.9041 31.3048 41.5093 36.4741 31.9939C38.4375 28.3822 38.1151 25.3365 37.1845 22.9416C36.3142 20.7036 34.9511 18.8566 31.4595 17.452C26.4894 15.4507 23.9363 16.6083 21.3359 19.1215L21.0895 19.3608C19.2283 21.1538 18.9505 24.4233 19.2808 26.8285C19.4223 27.5128 21.5902 29.617 24.4789 30.345C25.2758 30.5456 26.7201 30.772 27.4174 30.026C28.7936 28.5572 29.5197 27.1166 29.365 26.17C29.3205 25.905 29.1894 25.5191 28.576 25.1307C28.0439 25.406 27.1055 26.4632 26.5629 27.4304L22.7095 25.2233C23.0843 24.5416 24.07 20.9505 27.2156 20.1248C28.6232 19.7544 30.0361 19.937 31.2996 20.6496C33.2446 21.7505 33.5382 23.4303 33.8633 25.3802C34.1595 27.1501 33.4307 29.6504 31.1266 32.9663C29.4332 35.4075 26.285 36.9741 22.6413 35.94C18.6621 34.8133 14.2688 30.8775 13.8022 27.4767C13.2595 23.4998 14.7511 19.3762 17.7918 16.4437L18.033 16.2121C20.7015 13.632 25.1657 9.31292 33.6483 12.7265C38.5922 14.7176 41.8112 17.5627 43.2214 21.1872C43.7405 22.5223 44 23.9397 44 25.4265Z" fill="#B27BBF"/>
</svg>
