<svg width="48" height="48" viewBox="0 0 48 48" fill="none" xmlns="http://www.w3.org/2000/svg">
<path d="M27.1776 5.84814C22.6677 5.93839 19.8432 10.219 19.4407 10.8483C16.887 14.8509 19.2797 16.9583 17.448 22.4926C15.5211 28.3074 12.1551 28.1537 11.1478 33.2417C10.3453 37.2882 11.3575 43.042 15.1357 44.5884C17.6529 45.6177 20.831 44.5445 22.7116 43.2445C25.8897 41.0469 24.8214 38.5663 27.7361 36.6004C30.6728 34.6198 32.6021 36.5662 36.9071 34.8101C37.5364 34.554 43.4025 32.0661 43.8464 27.2708C44.0488 25.0707 43.1025 22.4706 41.2146 20.9267C39.3804 19.4266 37.8657 19.912 36.7486 18.39C35.5461 16.7509 36.6998 15.3704 36.2705 13.0898C35.6047 9.55314 31.4972 5.76278 27.1776 5.85058V5.84814Z" fill="#80C0DD"/>
<path d="M4.52562 18.8614C3.33778 21.5981 4.24269 25.4641 6.44032 26.1007C8.46234 26.686 11.16 24.4152 12.1039 22.0688C13.1552 19.4565 12.4332 15.7369 10.2697 15.0515C8.25257 14.4125 5.51834 16.5784 4.52806 18.859L4.52562 18.8614Z" fill="#80C0DD"/>
<path d="M10.8796 3.78753C9.65278 4.88513 9.42838 7.15594 10.7211 8.19256C11.9431 9.17064 13.9041 8.54866 14.9481 7.81937C15.9091 7.14862 16.953 5.78516 16.5432 4.68512C15.9627 3.12654 12.5602 2.28505 10.8796 3.78753Z" fill="#6CB2D8"/>
</svg>
