<svg width="28" height="28" viewBox="0 0 28 28" fill="none" xmlns="http://www.w3.org/2000/svg">
<path d="M23.52 5.37844C22.2814 4.13945 20.6392 3.38616 18.8921 3.25555C17.145 3.12495 15.4091 3.62571 14 4.66677C12.5156 3.56269 10.668 3.06204 8.82924 3.26565C6.99049 3.46927 5.29718 4.36202 4.0903 5.76412C2.88342 7.16623 2.25262 8.97355 2.32493 10.8221C2.39724 12.6707 3.16728 14.4232 4.48 15.7268L13.1717 24.4184C13.2801 24.5278 13.4092 24.6146 13.5513 24.6738C13.6935 24.733 13.846 24.7635 14 24.7635C14.154 24.7635 14.3065 24.733 14.4487 24.6738C14.5908 24.6146 14.7199 24.5278 14.8283 24.4184L23.52 15.7268C24.1998 15.0475 24.739 14.2408 25.1069 13.353C25.4748 12.4652 25.6642 11.5136 25.6642 10.5526C25.6642 9.59159 25.4748 8.63999 25.1069 7.75218C24.739 6.86437 24.1998 6.05776 23.52 5.37844ZM21.875 14.0818L14 21.9451L6.125 14.0818C5.43103 13.3849 4.9583 12.4987 4.7661 11.5342C4.57389 10.5697 4.67078 9.56991 5.04461 8.66027C5.41843 7.75063 6.05254 6.97163 6.8674 6.421C7.68226 5.87037 8.64157 5.57262 9.625 5.56511C10.9388 5.56833 12.1976 6.09283 13.125 7.02344C13.2335 7.13279 13.3625 7.21958 13.5047 7.27881C13.6468 7.33805 13.7993 7.36854 13.9533 7.36854C14.1073 7.36854 14.2598 7.33805 14.402 7.27881C14.5442 7.21958 14.6732 7.13279 14.7817 7.02344C15.7364 6.19614 16.9697 5.76244 18.2321 5.81014C19.4945 5.85783 20.6916 6.38335 21.5812 7.28033C22.4708 8.17731 22.9863 9.37875 23.0236 10.6415C23.0608 11.9042 22.6169 13.134 21.7817 14.0818H21.875Z" fill="#333333"/>
</svg>
