<svg width="48" height="48" viewBox="0 0 48 48" fill="none" xmlns="http://www.w3.org/2000/svg">
<path d="M39.6784 8.42291C41.8024 11.0939 43.1167 14.4499 42.9919 17.4713C42.8618 20.6945 40.8997 23.6469 38.3164 25.6966C35.7357 27.7463 32.5735 28.1605 29.4034 27.5578C26.4298 26.9949 23.4482 25.67 21.3268 22.9991C19.2028 20.3281 17.5699 17.081 17.6947 14.0596C17.8248 10.8363 20.3232 8.34857 22.9039 6.29623C25.4846 4.24654 28.4476 2.52077 31.6151 3.1208C34.5887 3.68367 37.5517 5.74664 39.6757 8.42026L39.6784 8.42291Z" fill="#C6AF83"/>
<path d="M8.15243 27.2393C9.85962 24.2843 12.4961 21.8257 15.3529 20.8301C18.3982 19.7707 21.8684 20.5168 24.7225 22.1656C27.5767 23.8143 29.1193 26.6048 29.722 29.7722C30.2901 32.7432 30.1574 36.0036 28.4502 38.9587C26.743 41.9137 24.3269 44.6325 21.4701 45.6281C18.4248 46.6875 15.1936 45.2617 12.3394 43.6156C9.48526 41.9668 6.78243 39.8534 6.17708 36.686C5.6089 33.715 6.44524 30.1944 8.15243 27.2393Z" fill="#C6AF83"/>
<path d="M22.5267 14.365C22.6993 13.6269 23.0391 12.91 23.6392 12.3923C24.0401 12.0365 24.5605 11.7577 25.0225 11.5506C25.357 11.3993 25.7526 11.5453 25.9066 11.8825C26.2305 12.6763 25.1632 12.9578 24.7437 13.3826C24.295 13.7251 24.0215 14.2588 23.7826 14.7844C23.4427 15.504 22.3648 15.1376 22.5267 14.365Z" fill="#FFF7EE"/>
<path d="M10.0269 36.6141C9.35249 35.5176 9.31532 33.8635 10.2287 32.8705C10.6455 32.374 11.4925 32.7059 11.4686 33.3458C11.4606 33.9166 11.2216 34.2883 11.1367 34.7981C11.0809 35.2016 11.1898 35.7194 11.2721 36.1601C11.4128 36.9009 10.3906 37.2646 10.0295 36.6141H10.0269Z" fill="#FFF7EE"/>
<path d="M29.8361 12.4003C30.4175 11.4047 31.4078 10.5206 32.5681 10.2259C33.2982 10.048 33.7151 11.0463 33.0858 11.4419C32.2415 11.9437 31.6043 12.5703 30.8583 13.2446C30.2901 13.7385 29.4617 13.0429 29.8361 12.4003Z" fill="#FFF7EE"/>
<path d="M29.4457 19.8292C30.0245 18.9159 30.8715 18.1911 31.8193 17.676C32.3769 17.3866 33.3964 16.8848 33.6593 17.7795C33.7204 18.0344 33.6301 18.292 33.4469 18.4539C32.4911 19.2823 31.4476 20.0522 30.3962 20.7532C29.7935 21.1435 29.074 20.4266 29.4457 19.8266V19.8292Z" fill="#FFF7EE"/>
<path d="M23.8089 22.8953C23.3708 22.3351 23.1903 21.3793 23.4505 20.6571C23.6417 19.9775 23.9921 19.473 24.3479 18.934C24.5523 18.6075 24.9904 18.5145 25.3064 18.7322C25.5267 18.8836 25.6303 19.1438 25.5931 19.3934C25.4816 20.1261 25.1099 20.7448 25.0196 21.4351C24.9506 21.7749 25.0409 22.0192 25.0648 22.4652C25.1099 23.1555 24.1886 23.4635 23.8089 22.8953Z" fill="#FFF7EE"/>
<path d="M14.9361 28.6811C15.5256 27.5102 16.5318 26.5677 17.6443 25.9092C18.2894 25.5455 18.9638 26.3632 18.4965 26.9261C17.6947 27.8448 16.8823 28.6705 15.9902 29.4856C15.4432 29.9582 14.6282 29.3289 14.9361 28.6837V28.6811Z" fill="#FFF7EE"/>
<path d="M21.1171 31.6359C21.5393 30.7863 22.1526 30.0164 22.9677 29.5013C23.5916 29.1243 24.2899 29.8916 23.8704 30.4757C23.3686 31.1899 22.8243 31.8191 22.1844 32.4271C21.6428 32.9157 20.8118 32.2891 21.1198 31.6386L21.1171 31.6359Z" fill="#FFF7EE"/>
<path d="M15.0638 37.9761C15.2284 37.2008 15.5709 36.476 16.0063 35.8149C16.1577 35.5945 16.3435 35.3927 16.6249 35.2786C17.1586 35.0423 17.7693 35.5414 17.6604 36.1096C17.6047 36.6167 17.2728 36.9114 17.0391 37.3229C16.8161 37.6708 16.5241 38.154 16.2878 38.4912C15.8789 39.1045 14.9124 38.6903 15.0638 37.9787V37.9761Z" fill="#FFF7EE"/>
<path d="M21.6508 38.916C21.988 37.9761 22.6809 37.1265 23.6022 36.6964C24.2527 36.407 24.8501 37.2194 24.3934 37.7504C23.8438 38.3717 23.3341 38.9399 22.7951 39.5797C22.3119 40.124 21.4198 39.5956 21.6508 38.916Z" fill="#FFF7EE"/>
<path d="M36.4977 14.2772C36.8773 13.8019 37.3552 13.5019 37.8756 13.2258C38.4942 12.9178 39.1288 13.6532 38.7465 14.2161C38.3004 14.8746 36.8747 16.0853 36.3835 14.8931C36.3198 14.6728 36.3702 14.4471 36.4977 14.2772Z" fill="#FFF7EE"/>
<path d="M35.0239 21.8176C35.6903 20.9123 36.5771 20.1343 37.6364 19.7175C38.2789 19.4865 38.8259 20.2724 38.4011 20.7928C37.878 21.4194 37.2674 21.9371 36.6036 22.4097C36.1124 22.7575 35.3557 23.246 34.9655 22.4894C34.8619 22.261 34.8938 22.0088 35.0239 21.815V21.8176Z" fill="#FFF7EE"/>
</svg>
