<svg width="48" height="48" viewBox="0 0 48 48" fill="none" xmlns="http://www.w3.org/2000/svg">
<path d="M14.0368 13.2953L14.3613 7.26145L15.9761 6.20637L25.7261 6L35.4787 6.43854L45.0882 8.105L45.7959 9.28906L45.7576 19.3936L45.3488 29.4929L45.6631 39.6155L45.1776 41.042L36.7281 42.5021L28.2045 43L19.6195 42.1771L11.6913 38.7462L10.8685 37.4589L11.9442 27.7491L11.3284 27.4292L2 17.544L2.16863 16.0787L3.26985 13.8422L5.09415 11.6469L5.41609 10.8549L14.0368 13.2953Z" fill="#A07250"/>
<path d="M16.8115 34.1C16.8115 36.0244 17.1897 37.5825 17.9971 37.5825C18.8045 37.5825 19.4611 36.0218 19.4611 34.1C19.4611 32.1781 18.807 30.6174 17.9971 30.6174C17.1871 30.6174 16.8115 32.1781 16.8115 34.1Z" fill="#E5BA9C"/>
<path d="M20.9658 28.5618C20.9658 30.8422 21.4513 31.4046 22.2076 31.4046C22.9639 31.4046 23.4493 30.8448 23.4493 28.5618C23.4493 26.2788 23.0942 25.8867 22.3379 25.8867C21.579 25.8867 20.9658 26.2814 20.9658 28.5618Z" fill="#DBAD8F"/>
<path d="M39.812 23.8048C39.812 26.4773 40.3613 28.6442 41.1176 28.6442C41.8739 28.6442 42.0272 26.4773 42.0272 23.8048C42.0272 21.1322 42.2546 18.9653 41.0333 18.9653C39.812 18.9653 39.812 21.1322 39.812 23.8048Z" fill="#E5BA9C"/>
<path d="M36.899 20.9182C36.899 18.9422 36.5439 17.3428 35.7876 17.3428C35.0313 17.3428 34.4155 18.9447 34.4155 20.9182C34.4155 22.8916 35.0287 24.4936 35.7876 24.4936C36.5464 24.4936 36.899 22.8916 36.899 20.9182Z" fill="#DBAD8F"/>
<path d="M38.1412 31.9669C38.1412 29.9909 37.3619 27.9839 36.6056 27.9839C35.8493 27.9839 35.6577 29.9909 35.6577 31.9669C35.6577 33.9429 36.2709 35.5423 37.0298 35.5423C37.7886 35.5423 38.1412 33.9403 38.1412 31.9669Z" fill="#DBAD8F"/>
</svg>
