<svg width="48" height="48" viewBox="0 0 48 48" fill="none" xmlns="http://www.w3.org/2000/svg">
<path d="M23.8361 20.0978L27.8581 13.5641L31.4569 6.28358L35.1718 7.95711L30.7681 14.9527L27.2302 21.9373L34.7126 17.0578L42.7262 12.7481L44.3886 15.2736L36.1704 19.705L28.5054 24.8141L35.974 24.1142L43.8575 23.7768L44.2697 32.2191L35.8689 30.9411L27.717 28.919L34.743 42.1385L28.3283 44.0001L25.4571 36.9768L22.702 30.2745L15.4491 32.5814L8.26264 35.9534L4.81877 31.3173L12.4506 28.9024L20.1156 27.0906L11.8835 25.9758L4 23.8736L4.45641 20.095L12.6276 21.3757L20.8293 23.301L14.5474 16.3967L8.74118 9.09677L13.8033 4.15088L19.059 12.1257L23.8361 20.0978Z" fill="#E86946"/>
<path d="M27.0921 3L22.9014 3.16874L23.131 9.27641L25.6482 9.84623L27.0921 3Z" fill="#D88044"/>
<path d="M10.7993 40.4039L14.3566 42.509L20.0355 35.9974L18.5778 34.0833L10.7993 40.4039Z" fill="#DB9542"/>
<path d="M35.1914 32.8857L41.158 34.1914L38.9423 37.508L34.5635 35.1651L35.1914 32.8857Z" fill="#DD5E40"/>
</svg>
