<svg width="48" height="48" viewBox="0 0 48 48" fill="none" xmlns="http://www.w3.org/2000/svg">
<path d="M43.1774 19.0056C45.4371 23.7947 45.3178 29.1088 42.9388 33.3992C40.2757 38.205 33.9451 42.1256 28.1824 43.5144C25.1185 44.2517 21.5941 45.347 18.5159 44.4856C13.8867 43.1898 13.1541 41.1807 11.1664 39.9637C7.52027 37.7302 4.90975 34.3275 3.6737 28.5194C2.55934 23.2841 3.45655 17.0943 5.89526 12.7752C8.5702 8.03622 12.9632 5.38276 18.6686 4.0083C24.8131 2.52885 30.5543 2.93212 35.2361 6.45894C37.052 7.82624 38.9586 9.55385 40.2256 11.7873C41.4927 14.0232 42.1227 16.7674 43.1774 19.0056Z" fill="#FF9B24"/>
<path d="M39.5909 23.7204C40.4452 27.8366 39.3643 31.917 36.7299 34.7876C33.7805 38.0018 28.1634 39.8535 23.4578 39.8535C20.9547 39.8535 18.0316 40.042 15.8172 38.806C12.486 36.9447 12.2927 35.2577 10.9851 33.9477C8.58694 31.5447 7.20294 28.4331 7.32703 23.7204C7.43918 19.4729 9.28372 14.8604 11.9706 11.9802C14.9152 8.82088 18.7999 7.5896 23.4602 7.5896C28.4784 7.5896 32.8356 8.96883 35.7945 12.5601C36.9423 13.9536 38.0924 15.6407 38.6556 17.6021C39.2163 19.5636 39.1924 21.7995 39.5909 23.7204Z" fill="#FFF7EE"/>
<path d="M23.9323 9.63002C26.0154 9.62047 27.8337 10.1216 28.793 10.7539C29.1533 10.9902 29.3346 11.5533 29.096 11.9971C28.5114 13.2332 28.4494 13.2046 27.8767 14.4454C27.3732 15.5335 27.5116 15.6027 26.9341 16.655C25.8198 18.6952 25.6694 18.6093 24.4954 20.6137C24.2234 21.1196 23.7438 21.1649 23.4622 20.671C22.3168 18.4232 22.2953 18.4327 21.1356 16.1921C20.038 14.0731 20.1501 14.0159 19.0215 11.9136C18.7804 11.4913 18.8592 10.9997 19.198 10.7372C20.0189 10.1001 21.5795 9.63956 23.9323 9.63002Z" fill="#FFA039"/>
<path d="M36.0951 16.7291C37.2548 18.7192 37.1236 20.8 37.0496 22.0694C37.021 22.5467 37.1379 23.253 36.5819 23.2697C35.7944 23.2983 35.7921 23.1456 35.0046 23.1456C33.0933 23.1456 33.0885 23.2888 31.1795 23.2196C28.6692 23.1313 28.6692 23.1027 26.1589 22.9977C25.5242 23.0168 25.5886 22.518 25.906 21.974C26.7388 20.7618 26.7364 20.7594 27.5358 19.5257C28.7623 17.6382 28.7337 17.6215 29.8337 15.6553C30.4804 14.5004 30.5162 14.5171 31.1008 13.3311C31.3728 12.8682 31.9598 12.4912 32.3989 12.6702C33.4583 13.1068 34.7827 14.4813 36.0951 16.7291Z" fill="#FFA039"/>
<path d="M35.8208 30.877C34.7875 32.681 33.5586 34.1772 32.566 34.7117C32.1937 34.9121 31.6186 34.621 31.3776 34.2058C30.8765 33.3539 30.762 33.4207 30.2848 32.5545C29.7526 31.5881 29.8051 31.5643 29.2444 30.6145C28.7958 29.8557 28.8602 29.8199 28.3973 29.0707C27.3831 27.4313 27.2829 27.4934 26.3046 25.8326C26.0301 25.3601 26.3547 24.9187 26.8963 24.9067C28.6168 25.0022 28.6144 25.0237 30.3349 25.1406C31.874 25.2456 31.8716 25.2623 33.4107 25.3649C34.9164 25.4675 34.9235 25.3744 36.4292 25.458C36.8922 25.4484 37.2859 25.8421 37.3312 26.2573C37.441 27.2643 36.9876 28.8368 35.8208 30.877Z" fill="#FFA039"/>
<path d="M23.6918 37.5297C21.7733 37.5392 19.714 37.2433 18.8311 36.6348C18.4994 36.4058 18.3681 35.7782 18.5877 35.3511C19.1675 34.4562 19.2391 34.5039 19.7736 33.5829C20.8951 31.6429 20.9667 31.6811 22.019 29.7029C22.346 29.0873 22.2314 29.0252 22.5583 28.4096C23.0117 27.5577 23.0022 27.5529 23.4532 26.6987C23.7037 26.2119 24.3098 26.1832 24.5699 26.6605C25.1855 28.0087 25.0829 28.054 25.6843 29.4094C26.35 30.9127 26.3166 30.9294 26.9824 32.4327C27.6147 33.8621 27.6505 33.8454 28.2995 35.2699C28.5215 35.6756 28.5024 36.3604 28.1898 36.6134C27.4286 37.2266 25.8608 37.5201 23.6918 37.5297Z" fill="#FFA039"/>
<path d="M11.6434 31.0703C10.195 29.5193 10.0972 27.25 10.1664 26.0808C10.1926 25.6417 10.751 25.1645 11.264 25.1478C14.0893 25.0356 14.0941 25.1573 16.9194 25.0475C18.9405 24.9688 18.9333 24.8399 20.9544 24.7684C21.5391 24.7493 21.7323 25.2456 21.4388 25.7467C20.9926 26.7608 21.2527 26.8802 20.7444 27.8657C20.3603 28.6102 20.2481 28.5481 19.7756 29.2401C18.6684 30.8651 18.5873 30.8102 17.4825 32.4329C16.9074 33.2776 17.0411 33.3659 16.4779 34.2177C16.2274 34.6449 16.0245 35.3512 15.6189 35.1865C14.6381 34.788 13.4951 33.0557 11.6434 31.0703Z" fill="#FFA039"/>
<path d="M11.5793 16.7983C12.6817 14.8679 14.2017 13.4242 15.297 12.8754C15.7074 12.6678 16.3302 12.947 16.6118 13.4051C17.7428 15.19 17.9457 15.0683 19.0123 16.8914C19.9811 18.5498 19.7711 18.6667 20.7113 20.3418C21.0668 20.9766 21.062 20.9813 21.4534 21.5946C21.7755 22.1148 21.5512 22.6064 20.9427 22.604C20.0407 22.697 20.0479 22.7782 19.1435 22.8354C18.4253 22.8808 18.4253 22.7662 17.707 22.7543C16.082 22.7281 16.082 22.7996 14.457 22.7829C12.832 22.7662 12.832 22.8092 11.207 22.7949C10.6892 22.7925 10.0592 22.3319 9.9972 21.8786C9.84687 20.7785 10.3313 18.9769 11.5793 16.7983Z" fill="#FFA039"/>
</svg>
