<svg width="48" height="48" viewBox="0 0 48 48" fill="none" xmlns="http://www.w3.org/2000/svg">
<path d="M29.7203 23.2857C29.6307 23.3345 29.3103 22.7942 29.3945 22.7344C31.0835 21.5777 34.6786 17.73 34.9013 11.8132C35.2163 3.48783 28.9736 3.86798 27.2466 1.55176C27.0973 1.35354 26.7253 0.867484 26.5488 1.04127C25.7668 1.80157 24.4199 4.26985 23.6216 8.23974C23.2061 10.3007 22.9645 12.8097 23.3935 15.927C23.4071 16.0302 23.4668 15.9731 23.4315 15.8754C22.5952 13.6786 19.649 8.19629 16.5508 6.8739C13.4661 5.55966 10.9 4.89439 9.96596 4.88896C9.75959 4.88896 9.28168 5.09533 9.21923 5.29084C8.71688 6.92549 6.97361 14.4498 10.3162 17.5915C13.8707 20.9341 14.4871 21.6537 18.1827 22.7779C18.2804 22.8077 18.2153 23.2721 18.1121 23.2666C16.5915 23.2232 12.8443 22.6258 10.6339 23.5355C7.76922 24.7167 6.55001 26.631 5.65122 27.9805C4.75243 29.3301 3.2997 32.6972 3.02002 34.6088C5.10543 36.0751 6.32192 34.6387 8.06248 35.0324C9.75959 35.4153 16.1163 35.8796 20.0807 30.59C20.1405 30.5113 20.0319 30.4868 20.0047 30.5792C19.6246 31.8798 18.9593 35.4831 19.5431 38.7117C20.2219 42.4725 23.8415 44.1751 25.1178 46.0541C25.2807 46.2958 25.4029 47.0099 25.669 46.8904C26.8963 46.3338 29.5737 44.2647 30.0245 42.1874C30.5757 39.6485 32.7045 36.7376 31.2138 32.8519C31.1866 32.7786 31.1921 32.5424 31.2654 32.575C31.8981 32.8465 33.8912 33.3977 37.8963 32.3251C42.7297 31.0326 44.2992 28.9336 45.4234 26.9107C46.5475 24.8877 46.4579 23.3481 47.02 22.281C43.672 21.4012 42.4256 21.6483 40.3483 20.9016C37.2175 19.7774 33.8097 21.0753 29.7231 23.2829L29.7203 23.2857Z" fill="#EADBCE"/>
<path d="M25.3351 21.526C25.3351 22.2483 24.7975 22.9082 24.0752 22.9082C23.3529 22.9082 22.6523 22.251 22.6523 21.526C22.6523 20.801 23.3529 20.3123 24.0752 20.3123C24.7975 20.3123 25.3351 20.8037 25.3351 21.526Z" fill="#C9A23F"/>
<path d="M23.4776 26.02C23.3228 26.6934 22.663 27.2392 22.0493 27.098C21.4356 26.9568 21.1994 26.2074 21.3542 25.5313C21.5089 24.8578 22.0439 24.3093 22.6575 24.4478C23.2712 24.5863 23.6324 25.3439 23.4776 26.0173V26.02Z" fill="#C9A23F"/>
<path d="M27.5207 24.5972C27.9904 25.1891 27.9633 26.1178 27.4256 26.5441C26.888 26.9704 26.0245 26.7532 25.552 26.1612C25.0822 25.5693 25.1583 24.7954 25.6959 24.3691C26.2336 23.9428 27.0482 24.0052 27.5207 24.5972Z" fill="#C9A23F"/>
</svg>
