<svg width="48" height="48" viewBox="0 0 48 48" fill="none" xmlns="http://www.w3.org/2000/svg">
<path d="M4.05062 41.928C3.80205 34.6148 4.69412 27.2482 7.33085 20.3718C7.83032 19.0546 8.46221 17.6468 9.19399 16.4063C10.0977 14.8359 11.3963 13.521 12.7484 12.3571C14.8159 10.6031 16.9648 9.121 19.5458 8.05934C21.3996 7.27413 23.4509 7.00232 25.4604 7C27.4095 7.01626 29.3377 7.02788 31.2961 7.34847C35.9679 8.05237 39.1645 10.6519 41.1623 14.8893C43.7387 20.4694 44.4031 26.5025 44.8282 32.5054C45.0512 35.6811 44.9978 38.8266 44.9304 42L39.4409 41.7886C39.5176 40.0858 39.5687 38.3388 39.5849 36.6313C39.6151 34.9517 39.5524 33.2279 39.4386 31.5576C39.111 26.628 38.5465 21.6379 36.5068 17.1264C35.6287 15.2865 34.4207 13.6766 32.4878 12.9448C30.3877 12.1945 28.1018 12.0272 25.7857 12.3339C24.9865 12.4361 24.185 12.5546 23.3766 12.6521C22.6564 12.7311 22.0594 12.8798 21.3741 13.0912C18.5166 14.0181 15.1086 15.7233 13.3617 18.2462C12.8413 19.0128 12.444 19.9165 12.1025 20.7784C10.8248 24.2654 10.2487 28.0474 9.75386 31.7365C9.34035 35.0516 9.16611 38.5014 9.05228 41.8583L4.05527 41.9233H4.05062V41.928Z" fill="#E26949"/>
<path d="M11.8445 41.9211C11.7005 35.9786 12.1093 26.57 15.1805 21.2918C16.8415 18.8456 19.1391 16.8733 21.8966 15.7698C22.9188 15.4028 24.0222 15.261 25.1048 15.1681C28.5662 14.8591 32.1229 15.8534 34.0395 18.9896C36.6484 23.1805 37.0317 29.6945 37.0154 34.5034C37.0201 37.0007 36.8063 39.4818 36.4718 41.949L32.8431 41.8421C32.4575 37.1773 32.1717 32.4335 31.2773 27.8523C30.822 25.7708 30.2389 22.7275 28.7335 21.3731C27.7253 20.6483 26.1572 20.6855 24.7703 20.8388C24.1314 20.9248 23.8457 20.9457 23.1395 21.3197C21.9895 21.9307 20.7629 22.9645 19.9545 24.0424C19.1065 25.2295 18.7604 26.6815 18.3794 28.0916C17.8404 30.2869 17.4664 32.6193 17.2062 34.8774C16.9646 37.1726 16.8252 39.5608 16.7625 41.8723L11.8398 41.9234L11.8445 41.9211Z" fill="#F09151"/>
<path d="M19.202 41.905C19.2648 38.8501 19.4343 35.8231 19.7596 32.7845C19.964 31.1374 20.0964 29.7017 20.6122 28.0291C21.107 26.6492 21.7691 25.2669 22.9399 24.2982C24.0062 23.5292 25.5999 23.4224 26.7289 24.182C28.6037 25.5015 28.678 28.503 28.9521 30.5497C29.1798 32.7427 29.44 35.1843 29.4214 37.375C29.3935 38.8896 29.3354 40.4066 29.1682 41.9143L26.4734 41.8771C25.9483 37.5376 26.485 33.0261 25.6998 28.7423C25.5859 28.1615 25.4303 27.4715 25.1933 26.986C25.1515 26.8931 25.0865 26.7909 25.0261 26.7444C25.0261 26.7514 25.0447 26.7583 25.0423 26.7607C24.9633 26.7607 24.81 26.7955 24.7032 26.8443C24.7566 26.8304 24.8054 26.8002 24.8356 26.7792C24.3175 27.3229 23.8877 28.2521 23.6508 29.0164C23.0259 31.6926 22.9631 34.708 22.8818 37.4818C22.8609 38.9431 22.8725 40.4322 22.9074 41.8888L19.1997 41.9074L19.202 41.905Z" fill="#B45C2C"/>
</svg>
