<svg width="86" height="28" viewBox="0 0 86 28" fill="none" xmlns="http://www.w3.org/2000/svg">
<path d="M17.1955 5.54809C17.7253 5.57391 18.1546 5.64279 18.4844 5.7547C18.8143 5.86662 19.1091 6.04849 19.369 6.29815C19.657 6.57364 19.8547 6.92338 19.9609 7.34522C20.0671 7.76814 20.1213 8.42243 20.1213 9.31023V18.6456L8.80459 5.25H3.43994V5.54701C3.97878 5.57284 4.41256 5.64171 4.74241 5.75363C5.07227 5.86554 5.36258 6.04741 5.61336 6.29707C5.90142 6.57256 6.09911 6.92445 6.20529 7.3506C6.31148 7.77675 6.3657 8.42565 6.3657 9.29624V18.8393C6.3657 19.7185 6.31261 20.3717 6.20529 20.7979C6.09798 21.2251 5.90029 21.5759 5.61336 21.8514C5.35355 22.1011 5.05758 22.2829 4.72886 22.3949C4.399 22.5068 3.96974 22.5757 3.43994 22.6015V22.8985H9.86419V22.6015C9.33439 22.5757 8.90513 22.5068 8.57527 22.3949C8.24542 22.2829 7.95058 22.1022 7.69077 21.8514C7.40271 21.5759 7.20502 21.2262 7.09884 20.8043C6.99152 20.3825 6.93843 19.7271 6.93843 18.8393V7.5895L20.0659 22.8996H20.6929V9.29624C20.6929 8.42565 20.746 7.77675 20.8533 7.3506C20.9595 6.92338 21.1572 6.57256 21.4452 6.29707C21.9649 5.79775 22.6901 5.54701 23.6198 5.54701V5.25H17.1955V5.54701V5.54809Z" fill="#65BFC4"/>
<path d="M58.8035 5.25108H52.3793V5.54809C52.9091 5.57391 53.3383 5.64279 53.6682 5.7547C53.998 5.86662 54.2929 6.04849 54.5527 6.29815C54.8408 6.57364 55.0384 6.92338 55.1446 7.34522C55.2508 7.76814 55.305 8.42243 55.305 9.31023V18.6456L43.9883 5.25H38.6226V5.54701C39.1614 5.57284 39.5952 5.64171 39.925 5.75363C40.2549 5.86554 40.5452 6.04741 40.796 6.29707C41.084 6.57256 41.2817 6.92445 41.3879 7.3506C41.4941 7.77675 41.5483 8.42565 41.5483 9.29624V18.8393C41.5483 19.7185 41.4941 20.3717 41.3879 20.7979C41.2806 21.2251 41.0829 21.5759 40.796 21.8514C40.5362 22.1011 40.2402 22.2829 39.9115 22.3949C39.5816 22.5068 39.1524 22.5757 38.6226 22.6015V22.8985H45.0468V22.6015C44.517 22.5757 44.0877 22.5068 43.7579 22.3949C43.428 22.2829 43.1332 22.1022 42.8734 21.8514C42.5853 21.5759 42.3876 21.2262 42.2815 20.8043C42.1741 20.3825 42.121 19.7271 42.121 18.8393V7.5895L55.2486 22.8996H55.8755V9.29624C55.8755 8.42565 55.9286 7.77675 56.0359 7.3506C56.1421 6.92338 56.3398 6.57256 56.6278 6.29707C57.1475 5.79775 57.8727 5.54701 58.8024 5.54701V5.25L58.8035 5.25108Z" fill="#65BFC4"/>
<path d="M68.2925 21.4405C67.9965 21.716 67.6238 21.9323 67.1742 22.0872C66.7246 22.2422 66.2501 22.3197 65.7508 22.3197C65.0753 22.3197 64.4292 22.1819 63.8135 21.9064C63.1978 21.631 62.6816 21.2511 62.2648 20.769C61.857 20.2955 61.535 19.7004 61.2989 18.9848C61.0628 18.2691 60.9454 17.5363 60.9454 16.7862C60.9454 16.5968 60.9634 16.2901 61.0007 15.8683H69.168C69.168 14.7825 68.8291 13.8764 68.1502 13.1532C67.713 12.6873 67.1787 12.3321 66.5472 12.0868C65.9158 11.8414 65.2278 11.7188 64.4845 11.7188C63.0905 11.7188 61.8502 12.1201 60.7635 12.9219C59.2678 14.0249 58.52 15.5465 58.52 17.4868C58.52 18.9094 58.9143 20.1072 59.705 21.0811C60.2721 21.7795 60.9634 22.296 61.7813 22.6328C62.5991 22.9686 63.5785 23.1375 64.7217 23.1375C66.0411 23.1375 67.0974 22.8814 67.8926 22.3681C68.6868 21.8559 69.2053 21.0951 69.447 20.0856L69.1544 19.9952C68.9138 20.6592 68.6269 21.1413 68.2936 21.4437L68.2925 21.4405ZM62.145 12.9584C62.7415 12.3203 63.4373 12.0018 64.2326 12.0018C64.7037 12.0018 65.1476 12.1244 65.5644 12.3698C65.9801 12.6152 66.3134 12.9498 66.563 13.3717C66.8409 13.8376 67.0115 14.5016 67.0759 15.3625H61.0832C61.1939 14.3972 61.5474 13.5955 62.145 12.9574V12.9584Z" fill="#65BFC4"/>
<path d="M81.2163 19.8885C80.8627 20.8882 80.3103 21.5823 79.558 21.9708C79.1683 22.1688 78.6294 22.3151 77.9415 22.4109C77.2535 22.5056 76.3758 22.553 75.3072 22.553H73.4252L81.2016 12.1823V11.9111H71.8923L71.5997 14.6262L71.864 14.652C72.1329 13.9622 72.4164 13.4586 72.7146 13.139C73.0298 12.8119 73.3902 12.5826 73.7946 12.4535C74.199 12.3244 74.7728 12.2598 75.5161 12.2598H78.5684L70.792 22.6434V22.9016H81.2027L81.4953 19.9272L81.2163 19.8885Z" fill="#65BFC4"/>
<path d="M36.0606 13.9827C37.2693 12.6451 37.9358 10.6209 37.188 8.84745C37.1383 8.73661 37.0773 8.64514 37.0095 8.57089C36.6367 8.06403 35.9793 7.75195 35.2495 7.83481C34.4147 7.92951 33.7415 8.56228 33.6477 9.33816C33.5234 10.3734 34.3933 11.2494 35.4834 11.2494C35.4856 11.2494 35.489 11.2494 35.4924 11.2494C35.9431 11.2472 36.2843 11.612 36.2018 12.0231C36.0843 12.6085 35.8415 13.1735 35.5229 13.6136C34.9852 14.4046 34.217 15.0061 33.3404 15.4516V15.0007C33.3404 14.3884 33.3032 13.9537 33.2286 13.6943C33.0795 13.1864 32.7033 12.7721 32.0978 12.4536C31.6787 12.2383 31.158 12.0618 30.5344 11.923C29.9109 11.7853 29.311 11.7164 28.7338 11.7164C28.222 11.7164 27.699 11.7659 27.1636 11.8649C26.6281 11.9639 26.1797 12.0909 25.8159 12.2459C25.146 12.5483 24.8105 12.9184 24.8105 13.3575C24.8105 13.6502 24.9179 13.8945 25.1314 14.0882C25.3449 14.2819 25.6103 14.3787 25.9255 14.3787C26.4079 14.3787 26.7434 14.1764 26.9286 13.7707L27.2765 13.0207C27.4245 12.7021 27.6482 12.4514 27.9453 12.2706C28.2424 12.0898 28.5813 11.9994 28.9631 11.9994C29.2783 11.9994 29.5833 12.064 29.8758 12.1931C30.1684 12.3223 30.4079 12.4955 30.5932 12.7107C31.0021 13.1767 31.2066 13.9128 31.2066 14.9222C31.2066 15.3968 31.2348 16.1361 31.2348 16.1361C31.2348 16.1361 30.688 16.4481 29.6217 16.7505C28.6265 17.0325 28.4751 17.0594 27.6674 17.2628C26.9794 17.4393 26.4553 17.6125 26.0927 17.7847C25.7301 17.9569 25.4104 18.1861 25.1314 18.4734C24.6388 18.9932 24.3926 19.6367 24.3926 20.4072C24.3926 21.2423 24.6931 21.9052 25.2929 22.3959C25.8927 22.8877 26.7049 23.133 27.7284 23.133C28.5282 23.133 29.2308 22.9781 29.8363 22.6671C30.1526 22.5035 30.6225 22.1624 31.2461 21.6458C31.5533 22.1376 31.8504 22.482 32.1396 22.68C32.5768 22.9813 33.1258 23.133 33.7866 23.133C34.9852 23.133 35.7522 22.68 36.0866 21.775L35.8494 21.6458C35.6268 21.9299 35.4337 22.1204 35.271 22.2151C35.1083 22.3098 34.8835 22.3572 34.5955 22.3572C33.9911 22.3572 33.6104 22.0515 33.4523 21.4392C33.3777 21.1465 33.3404 20.5945 33.3404 19.7841V16.093C34.3616 15.5334 35.3049 14.8253 36.0617 13.9817L36.0606 13.9827ZM31.2348 18.7123C31.2348 19.8067 31.0913 20.6429 30.8044 21.2208C30.6011 21.6609 30.2972 22.0117 29.8939 22.2743C29.4906 22.5369 29.0625 22.6682 28.6084 22.6682C28.0899 22.6682 27.6606 22.4336 27.3229 22.0343C26.9851 21.6361 26.8156 21.1304 26.8156 20.5181C26.8156 19.8046 27.0337 19.1783 27.4686 18.6402C27.6821 18.3809 27.9329 18.1473 28.2153 17.9935C28.5248 17.8245 28.8885 17.6491 29.5979 17.3768C30.3548 17.0863 31.2337 16.6569 31.2337 16.6569V18.7102L31.2348 18.7123Z" fill="#65BFC4"/>
</svg>
